<svg xmlns="http://www.w3.org/2000/svg" viewBox="0 0 256 256" role="img" aria-label="M-Coin dark blue">
  <defs>
    <radialGradient id="bgGlow" cx="35%" cy="24%" r="78%">
      <stop offset="0%" stop-color="#a8e4ff"/>
      <stop offset="45%" stop-color="#54abff"/>
      <stop offset="100%" stop-color="#1b4fa1"/>
    </radialGradient>
    <linearGradient id="rim" x1="0" y1="0" x2="1" y2="1">
      <stop offset="0%" stop-color="#d8f3ff"/>
      <stop offset="55%" stop-color="#6cb5ff"/>
      <stop offset="100%" stop-color="#316fc5"/>
    </linearGradient>
    <linearGradient id="inner" x1="0" y1="0" x2="0" y2="1">
      <stop offset="0%" stop-color="#2459ad"/>
      <stop offset="100%" stop-color="#14386f"/>
    </linearGradient>
  </defs>

  <circle cx="128" cy="128" r="118" fill="#071a3a"/>
  <circle cx="128" cy="128" r="108" fill="url(#bgGlow)"/>
  <circle cx="128" cy="128" r="102" fill="none" stroke="url(#rim)" stroke-width="9"/>
  <circle cx="128" cy="128" r="84" fill="url(#inner)"/>

  <ellipse cx="128" cy="84" rx="54" ry="16" fill="#d9f2ff" opacity="0.35"/>

  <path d="M86 176V80h20l22 30 22-30h20v96h-21v-57l-21 27-21-27v57z" fill="#e8f8ff"/>
  <path d="M86 176V80h20l22 30 22-30h20" fill="none" stroke="#7fd4ff" stroke-width="2.4" stroke-opacity="0.85"/>

  <rect x="102" y="69" width="8" height="118" rx="4" fill="#e8f8ff" opacity="0.9"/>
  <rect x="146" y="69" width="8" height="118" rx="4" fill="#e8f8ff" opacity="0.9"/>

  <circle cx="128" cy="128" r="111" fill="none" stroke="#ffffff" stroke-opacity="0.2" stroke-width="2"/>
</svg>
